<?xml version="1.0" standalone="no"?><!-- Generator: Gravit.io --><svg xmlns="http://www.w3.org/2000/svg" xmlns:xlink="http://www.w3.org/1999/xlink" style="isolation:isolate" viewBox="0 0 128 128" width="128" height="128"><defs><clipPath id="_clipPath_y6nFd7oVmSII1jeOOhxsdQtUT6Y1ns4P"><rect width="128" height="128"/></clipPath></defs><g clip-path="url(#_clipPath_y6nFd7oVmSII1jeOOhxsdQtUT6Y1ns4P)"><path d=" M 0 64 C 0 28.677 28.677 0 64 0 C 99.323 0 128 28.677 128 64 C 128 99.323 99.323 128 64 128 C 28.677 128 0 99.323 0 64 Z " fill="rgb(180,27,29)"/><g id="Group"><path d=" M 61.46 93.244 L 61.46 93.244 C 51.568 93.244 39.585 90.133 26.806 84.247 C 25.764 83.768 25.198 82.626 25.443 81.508 C 25.688 80.387 26.679 79.589 27.827 79.589 C 44.298 79.589 50.662 64.776 56.817 50.448 C 62.403 37.447 68.362 24 82 24 C 89 24 97 28 102 32 C 101 32 97.771 32.87 96.803 33.128 C 92.171 34.358 91.64 42.599 91.026 52.142 C 90.358 62.521 89.597 74.286 83.563 83.38 C 79.281 89.833 71.636 93.244 61.46 93.244 Z " fill="rgb(255,255,255)"/><path d=" M 96.803 33.128 C 96.881 33.107 96.945 33.061 97.017 33.032 C 77.596 32.627 89.225 106.144 25.618 83.033 C 25.852 83.553 26.259 83.994 26.806 84.246 C 39.585 90.132 51.57 93.243 61.46 93.243 C 71.636 93.243 79.281 89.831 83.563 83.378 C 89.597 74.284 90.358 62.52 91.026 52.14 C 91.64 42.599 92.171 34.358 96.803 33.128 Z " fill="rgb(255,255,255)"/><path d=" M 90.578 51.012 C 90.31 50.745 89.982 50.54 89.622 50.421 C 87.627 49.758 85.531 49.42 83.398 49.42 C 73.331 49.42 64.13 56.767 61.023 67.287 C 58.587 75.535 60.006 84.105 64.914 90.799 C 65.03 90.956 65.169 91.104 65.319 91.229 L 67.207 92.802 C 74.52 91.725 80.135 88.549 83.562 83.381 C 89.595 74.287 90.356 62.523 91.024 52.143 C 91.038 51.928 91.051 51.716 91.067 51.499 L 90.578 51.012 L 90.578 51.012 Z " fill="rgb(255,255,255)"/><path d=" M 90.578 51.012 C 90.31 50.745 89.982 50.54 89.622 50.421 C 87.983 49.877 86.274 49.564 84.535 49.465 C 80.096 61.959 75.176 78.063 61.556 84.587 C 62.382 86.777 63.497 88.868 64.912 90.799 C 65.028 90.956 65.167 91.104 65.317 91.229 L 67.205 92.802 C 72.678 91.995 77.198 90.014 80.563 86.901 C 80.575 86.891 80.585 86.88 80.597 86.871 C 81.116 86.39 81.6 85.875 82.063 85.341 C 82.143 85.246 82.222 85.15 82.301 85.054 C 82.745 84.521 83.17 83.968 83.559 83.382 C 89.593 74.288 90.354 62.524 91.022 52.144 C 91.036 51.927 91.049 51.715 91.064 51.499 L 90.578 51.012 L 90.578 51.012 Z " fill="rgb(255,255,255)"/><path d=" M 63.69 70.602 C 66.798 60.084 75.999 52.737 86.065 52.737 C 87.726 52.737 89.351 53.002 90.937 53.407 C 90.965 52.988 90.998 52.558 91.024 52.141 C 91.038 51.926 91.051 51.714 91.067 51.497 L 90.578 51.011 C 90.31 50.744 89.982 50.539 89.622 50.42 C 87.627 49.757 85.531 49.419 83.398 49.419 C 73.331 49.419 64.13 56.766 61.023 67.286 C 58.587 75.534 60.006 84.103 64.914 90.798 C 65.03 90.955 65.169 91.104 65.319 91.227 L 66.18 91.948 C 62.444 85.623 61.512 77.99 63.69 70.602 Z " fill="rgb(255,255,255)"/><g id="Group"><path d=" M 64.914 90.798 C 65.03 90.955 65.169 91.104 65.319 91.227 L 66.18 91.948 C 64.681 89.412 63.642 86.663 63.066 83.805 C 62.576 84.079 62.072 84.339 61.556 84.586 C 62.384 86.775 63.499 88.867 64.914 90.798 Z " fill="rgb(255,255,255)"/><path d=" M 90.578 51.012 C 90.31 50.745 89.982 50.54 89.622 50.421 C 87.983 49.877 86.274 49.564 84.535 49.465 C 84.133 50.598 83.724 51.76 83.307 52.943 C 84.217 52.821 85.135 52.738 86.065 52.738 C 87.726 52.738 89.351 53.003 90.938 53.408 C 90.965 52.989 90.998 52.559 91.024 52.142 C 91.038 51.925 91.051 51.713 91.066 51.497 L 90.578 51.012 L 90.578 51.012 Z " fill="rgb(255,255,255)"/></g><path d=" M 86.411 35.65 C 86.411 38.344 84.226 40.532 81.534 40.532 C 78.835 40.532 76.646 38.344 76.646 35.65 C 76.646 32.954 78.834 30.768 81.534 30.768 C 84.229 30.768 86.411 32.954 86.411 35.65 Z " fill="rgb(255,255,255)"/><path d=" M 79.088 35.471 C 79.088 34.124 80.181 33.03 81.529 33.03 C 82.876 33.03 83.97 34.124 83.97 35.471 C 83.97 36.819 82.876 37.912 81.529 37.912 C 80.181 37.912 79.088 36.819 79.088 35.471 Z " fill="rgb(255,255,255)"/><path d=" M 92 32 C 92 33.818 92.416 35.535 93.14 37.079 C 93.944 34.998 95.092 33.582 96.803 33.128 C 97.771 32.87 101 32 102 32 C 99.617 30.094 96.55 28.192 93.237 26.719 C 92.453 28.314 92 30.103 92 32 Z " fill="rgb(255,255,255)"/><path d=" M 92.316 34.704 C 92.508 35.531 92.787 36.326 93.138 37.079 C 93.142 37.069 93.146 37.061 93.151 37.052 C 93.255 36.786 93.364 36.531 93.478 36.288 C 93.539 36.162 93.603 36.044 93.666 35.923 C 93.748 35.768 93.832 35.618 93.919 35.474 C 93.985 35.365 94.053 35.257 94.122 35.155 C 94.236 34.986 94.358 34.828 94.482 34.677 C 94.531 34.619 94.576 34.553 94.626 34.498 C 94.8 34.303 94.986 34.131 95.181 33.971 C 95.245 33.918 95.316 33.871 95.382 33.822 C 95.533 33.711 95.692 33.61 95.854 33.52 C 95.924 33.481 95.995 33.442 96.066 33.407 C 96.3 33.295 96.544 33.197 96.801 33.128 C 96.879 33.107 96.943 33.061 97.015 33.032 C 95.209 32.995 93.672 33.599 92.316 34.704 Z " fill="rgb(255,255,255)"/></g></g></svg>